<?xml version="1.0" encoding="UTF-8"?>
<svg width="200px" height="200px" viewBox="0 0 200 200" version="1.1" xmlns="http://www.w3.org/2000/svg" xmlns:xlink="http://www.w3.org/1999/xlink">
    <title>httgp</title>
    <defs>
        <path d="M65.865,155.16 C70.8916667,155.16 75.4633333,154.358333 79.58,152.755 C83.6966667,151.151667 87.2283333,148.855 90.175,145.865 C93.1216667,142.875 95.4183333,139.235 97.065,134.945 C98.7116667,130.655 99.535,125.823333 99.535,120.45 L99.535,120.45 L99.535,61.3 L83.285,61.3 L83.285,68.19 L82.245,68.19 C80.2516667,65.4166667 77.63,63.2283333 74.38,61.625 C71.13,60.0216667 67.295,59.22 62.875,59.22 C59.0616667,59.22 55.3566667,60 51.76,61.56 C48.1633333,63.12 44.9783333,65.3516667 42.205,68.255 C39.4316667,71.1583333 37.1783333,74.6683333 35.445,78.785 C33.7116667,82.9016667 32.845,87.4733333 32.845,92.5 C32.845,97.5266667 33.7116667,102.076667 35.445,106.15 C37.1783333,110.223333 39.4316667,113.711667 42.205,116.615 C44.9783333,119.518333 48.1633333,121.75 51.76,123.31 C55.3566667,124.87 59.0616667,125.65 62.875,125.65 C67.295,125.65 71.13,124.848333 74.38,123.245 C77.63,121.641667 80.2516667,119.453333 82.245,116.68 L82.245,116.68 L83.285,116.68 L83.285,121.1 C83.285,127.08 81.725,131.738333 78.605,135.075 C75.485,138.411667 71.2383333,140.08 65.865,140.08 C62.485,140.08 59.4083333,139.148333 56.635,137.285 C53.8616667,135.421667 51.8683333,132.8 50.655,129.42 L50.655,129.42 L34.405,135.92 C35.185,138.173333 36.4416667,140.426667 38.175,142.68 C39.9083333,144.933333 42.075,146.991667 44.675,148.855 C47.275,150.718333 50.33,152.235 53.84,153.405 C57.35,154.575 61.3583333,155.16 65.865,155.16 Z M66.515,110.31 C64.435,110.31 62.3983333,109.92 60.405,109.14 C58.4116667,108.36 56.635,107.211667 55.075,105.695 C53.515,104.178333 52.2583333,102.315 51.305,100.105 C50.3516667,97.895 49.875,95.36 49.875,92.5 C49.875,89.64 50.3516667,87.105 51.305,84.895 C52.2583333,82.685 53.515,80.8 55.075,79.24 C56.635,77.68 58.4116667,76.51 60.405,75.73 C62.3983333,74.95 64.435,74.56 66.515,74.56 C68.595,74.56 70.6533333,74.95 72.69,75.73 C74.7266667,76.51 76.525,77.6583333 78.085,79.175 C79.645,80.6916667 80.9016667,82.5766667 81.855,84.83 C82.8083333,87.0833333 83.285,89.64 83.285,92.5 C83.285,95.36 82.8083333,97.895 81.855,100.105 C80.9016667,102.315 79.645,104.178333 78.085,105.695 C76.525,107.211667 74.7266667,108.36 72.69,109.14 C70.6533333,109.92 68.595,110.31 66.515,110.31 Z M127.355,153.08 L127.355,126.43 L126.315,117.33 L127.355,117.33 C128.915,120.016667 131.341667,122.313333 134.635,124.22 C137.928333,126.126667 142.001667,127.08 146.855,127.08 C150.928333,127.08 154.806667,126.235 158.49,124.545 C162.173333,122.855 165.423333,120.515 168.24,117.525 C171.056667,114.535 173.288333,110.96 174.935,106.8 C176.581667,102.64 177.405,98.09 177.405,93.15 C177.405,88.21 176.581667,83.66 174.935,79.5 C173.288333,75.34 171.056667,71.765 168.24,68.775 C165.423333,65.785 162.173333,63.445 158.49,61.755 C154.806667,60.065 150.928333,59.22 146.855,59.22 C142.001667,59.22 137.928333,60.1733333 134.635,62.08 C131.341667,63.9866667 128.915,66.2833333 127.355,68.97 L127.355,68.97 L126.315,68.97 L126.315,61.3 L110.325,61.3 L110.325,153.08 L127.355,153.08 Z M143.345,111.35 C141.091667,111.35 138.946667,110.938333 136.91,110.115 C134.873333,109.291667 133.075,108.1 131.515,106.54 C129.955,104.98 128.698333,103.073333 127.745,100.82 C126.791667,98.5666667 126.315,96.01 126.315,93.15 C126.315,90.29 126.791667,87.7333333 127.745,85.48 C128.698333,83.2266667 129.955,81.32 131.515,79.76 C133.075,78.2 134.873333,77.0083333 136.91,76.185 C138.946667,75.3616667 141.091667,74.95 143.345,74.95 C145.598333,74.95 147.743333,75.3833333 149.78,76.25 C151.816667,77.1166667 153.615,78.33 155.175,79.89 C156.735,81.45 157.991667,83.3566667 158.945,85.61 C159.898333,87.8633333 160.375,90.3766667 160.375,93.15 C160.375,95.9233333 159.898333,98.4366667 158.945,100.69 C157.991667,102.943333 156.735,104.85 155.175,106.41 C153.615,107.97 151.816667,109.183333 149.78,110.05 C147.743333,110.916667 145.598333,111.35 143.345,111.35 Z" id="gp"></path>
    </defs>
    <g stroke="none" stroke-width="1" fill="none" fill-rule="evenodd">
        <circle id="Oval-/w-White-Fill" fill="#5755D9" cx="100" cy="100" r="100"></circle>
        <g id="gp" fill-rule="nonzero" fill="#FFFFFF">
            <use xlink:href="#gp"></use>
            <use xlink:href="#gp"></use>
        </g>
    </g>
</svg>
